<svg xmlns="http://www.w3.org/2000/svg" width="1600" height="900" viewBox="0 0 1600 900">
<defs>
  <linearGradient id="sky" x1="0" y1="0" x2="0" y2="1">
    <stop offset="0" stop-color="#170f08"/><stop offset=".62" stop-color="#3a2a12"/><stop offset="1" stop-color="#5c451e"/>
  </linearGradient>
  <linearGradient id="floor" x1="0" y1="0" x2="0" y2="1">
    <stop offset="0" stop-color="#3a2c12"/><stop offset="1" stop-color="#140e05"/>
  </linearGradient>
  <radialGradient id="glow" cx="50%" cy="50%" r="50%">
    <stop offset="0" stop-color="#ffe9b0" stop-opacity=".85"/><stop offset="1" stop-color="#ffe9b0" stop-opacity="0"/>
  </radialGradient>
  <radialGradient id="pool" cx="50%" cy="50%" r="50%">
    <stop offset="0" stop-color="#ffe4a0" stop-opacity=".28"/><stop offset="1" stop-color="#ffe4a0" stop-opacity="0"/>
  </radialGradient>
  <radialGradient id="vig" cx="50%" cy="46%" r="72%">
    <stop offset=".55" stop-color="#000" stop-opacity="0"/><stop offset="1" stop-color="#03020a" stop-opacity=".55"/>
  </radialGradient>
</defs>
<rect width="1600" height="900" fill="url(#sky)"/>
<ellipse cx="800" cy="318" rx="560" ry="300" fill="url(#glow)"/>

<path d="M0 384 L0 384 L0 94 L220 94 L220 384 L1380 384 L1380 94 L1600 94 L1600 384 L300 384 L300 134 L480 134 L480 384 L1120 384 L1120 134 L1300 134 L1300 384 L1600 384 L1600 900 L0 900 Z" fill="#33250e" opacity=".55"/>
<path d="M0 404 L1600 404 L1600 900 L0 900 Z" fill="#1c1408" opacity=".8"/>
<rect x="10" y="110" width="200" height="34" fill="#5c451e" opacity=".55"/><rect x="12" y="113" width="10" height="28" fill="#8a5a22" opacity=".85"/><rect x="28" y="113" width="10" height="28" fill="#a06a2a" opacity=".85"/><rect x="44" y="113" width="10" height="28" fill="#6e4a1c" opacity=".85"/><rect x="60" y="113" width="10" height="28" fill="#8a5a22" opacity=".85"/><rect x="76" y="113" width="10" height="28" fill="#a06a2a" opacity=".85"/><rect x="92" y="113" width="10" height="28" fill="#6e4a1c" opacity=".85"/><rect x="108" y="113" width="10" height="28" fill="#8a5a22" opacity=".85"/><rect x="124" y="113" width="10" height="28" fill="#a06a2a" opacity=".85"/><rect x="140" y="113" width="10" height="28" fill="#6e4a1c" opacity=".85"/><rect x="156" y="113" width="10" height="28" fill="#8a5a22" opacity=".85"/><rect x="172" y="113" width="10" height="28" fill="#a06a2a" opacity=".85"/><rect x="188" y="113" width="10" height="28" fill="#6e4a1c" opacity=".85"/><rect x="10" y="162" width="200" height="34" fill="#5c451e" opacity=".55"/><rect x="12" y="165" width="10" height="28" fill="#8a5a22" opacity=".85"/><rect x="28" y="165" width="10" height="28" fill="#a06a2a" opacity=".85"/><rect x="44" y="165" width="10" height="28" fill="#6e4a1c" opacity=".85"/><rect x="60" y="165" width="10" height="28" fill="#8a5a22" opacity=".85"/><rect x="76" y="165" width="10" height="28" fill="#a06a2a" opacity=".85"/><rect x="92" y="165" width="10" height="28" fill="#6e4a1c" opacity=".85"/><rect x="108" y="165" width="10" height="28" fill="#8a5a22" opacity=".85"/><rect x="124" y="165" width="10" height="28" fill="#a06a2a" opacity=".85"/><rect x="140" y="165" width="10" height="28" fill="#6e4a1c" opacity=".85"/><rect x="156" y="165" width="10" height="28" fill="#8a5a22" opacity=".85"/><rect x="172" y="165" width="10" height="28" fill="#a06a2a" opacity=".85"/><rect x="188" y="165" width="10" height="28" fill="#6e4a1c" opacity=".85"/><rect x="10" y="214" width="200" height="34" fill="#5c451e" opacity=".55"/><rect x="12" y="217" width="10" height="28" fill="#8a5a22" opacity=".85"/><rect x="28" y="217" width="10" height="28" fill="#a06a2a" opacity=".85"/><rect x="44" y="217" width="10" height="28" fill="#6e4a1c" opacity=".85"/><rect x="60" y="217" width="10" height="28" fill="#8a5a22" opacity=".85"/><rect x="76" y="217" width="10" height="28" fill="#a06a2a" opacity=".85"/><rect x="92" y="217" width="10" height="28" fill="#6e4a1c" opacity=".85"/><rect x="108" y="217" width="10" height="28" fill="#8a5a22" opacity=".85"/><rect x="124" y="217" width="10" height="28" fill="#a06a2a" opacity=".85"/><rect x="140" y="217" width="10" height="28" fill="#6e4a1c" opacity=".85"/><rect x="156" y="217" width="10" height="28" fill="#8a5a22" opacity=".85"/><rect x="172" y="217" width="10" height="28" fill="#a06a2a" opacity=".85"/><rect x="188" y="217" width="10" height="28" fill="#6e4a1c" opacity=".85"/><rect x="10" y="266" width="200" height="34" fill="#5c451e" opacity=".55"/><rect x="12" y="269" width="10" height="28" fill="#8a5a22" opacity=".85"/><rect x="28" y="269" width="10" height="28" fill="#a06a2a" opacity=".85"/><rect x="44" y="269" width="10" height="28" fill="#6e4a1c" opacity=".85"/><rect x="60" y="269" width="10" height="28" fill="#8a5a22" opacity=".85"/><rect x="76" y="269" width="10" height="28" fill="#a06a2a" opacity=".85"/><rect x="92" y="269" width="10" height="28" fill="#6e4a1c" opacity=".85"/><rect x="108" y="269" width="10" height="28" fill="#8a5a22" opacity=".85"/><rect x="124" y="269" width="10" height="28" fill="#a06a2a" opacity=".85"/><rect x="140" y="269" width="10" height="28" fill="#6e4a1c" opacity=".85"/><rect x="156" y="269" width="10" height="28" fill="#8a5a22" opacity=".85"/><rect x="172" y="269" width="10" height="28" fill="#a06a2a" opacity=".85"/><rect x="188" y="269" width="10" height="28" fill="#6e4a1c" opacity=".85"/><rect x="10" y="318" width="200" height="34" fill="#5c451e" opacity=".55"/><rect x="12" y="321" width="10" height="28" fill="#8a5a22" opacity=".85"/><rect x="28" y="321" width="10" height="28" fill="#a06a2a" opacity=".85"/><rect x="44" y="321" width="10" height="28" fill="#6e4a1c" opacity=".85"/><rect x="60" y="321" width="10" height="28" fill="#8a5a22" opacity=".85"/><rect x="76" y="321" width="10" height="28" fill="#a06a2a" opacity=".85"/><rect x="92" y="321" width="10" height="28" fill="#6e4a1c" opacity=".85"/><rect x="108" y="321" width="10" height="28" fill="#8a5a22" opacity=".85"/><rect x="124" y="321" width="10" height="28" fill="#a06a2a" opacity=".85"/><rect x="140" y="321" width="10" height="28" fill="#6e4a1c" opacity=".85"/><rect x="156" y="321" width="10" height="28" fill="#8a5a22" opacity=".85"/><rect x="172" y="321" width="10" height="28" fill="#a06a2a" opacity=".85"/><rect x="188" y="321" width="10" height="28" fill="#6e4a1c" opacity=".85"/><rect x="310" y="110" width="160" height="34" fill="#5c451e" opacity=".55"/><rect x="312" y="113" width="10" height="28" fill="#8a5a22" opacity=".85"/><rect x="328" y="113" width="10" height="28" fill="#a06a2a" opacity=".85"/><rect x="344" y="113" width="10" height="28" fill="#6e4a1c" opacity=".85"/><rect x="360" y="113" width="10" height="28" fill="#8a5a22" opacity=".85"/><rect x="376" y="113" width="10" height="28" fill="#a06a2a" opacity=".85"/><rect x="392" y="113" width="10" height="28" fill="#6e4a1c" opacity=".85"/><rect x="408" y="113" width="10" height="28" fill="#8a5a22" opacity=".85"/><rect x="424" y="113" width="10" height="28" fill="#a06a2a" opacity=".85"/><rect x="440" y="113" width="10" height="28" fill="#6e4a1c" opacity=".85"/><rect x="456" y="113" width="10" height="28" fill="#8a5a22" opacity=".85"/><rect x="310" y="162" width="160" height="34" fill="#5c451e" opacity=".55"/><rect x="312" y="165" width="10" height="28" fill="#8a5a22" opacity=".85"/><rect x="328" y="165" width="10" height="28" fill="#a06a2a" opacity=".85"/><rect x="344" y="165" width="10" height="28" fill="#6e4a1c" opacity=".85"/><rect x="360" y="165" width="10" height="28" fill="#8a5a22" opacity=".85"/><rect x="376" y="165" width="10" height="28" fill="#a06a2a" opacity=".85"/><rect x="392" y="165" width="10" height="28" fill="#6e4a1c" opacity=".85"/><rect x="408" y="165" width="10" height="28" fill="#8a5a22" opacity=".85"/><rect x="424" y="165" width="10" height="28" fill="#a06a2a" opacity=".85"/><rect x="440" y="165" width="10" height="28" fill="#6e4a1c" opacity=".85"/><rect x="456" y="165" width="10" height="28" fill="#8a5a22" opacity=".85"/><rect x="310" y="214" width="160" height="34" fill="#5c451e" opacity=".55"/><rect x="312" y="217" width="10" height="28" fill="#8a5a22" opacity=".85"/><rect x="328" y="217" width="10" height="28" fill="#a06a2a" opacity=".85"/><rect x="344" y="217" width="10" height="28" fill="#6e4a1c" opacity=".85"/><rect x="360" y="217" width="10" height="28" fill="#8a5a22" opacity=".85"/><rect x="376" y="217" width="10" height="28" fill="#a06a2a" opacity=".85"/><rect x="392" y="217" width="10" height="28" fill="#6e4a1c" opacity=".85"/><rect x="408" y="217" width="10" height="28" fill="#8a5a22" opacity=".85"/><rect x="424" y="217" width="10" height="28" fill="#a06a2a" opacity=".85"/><rect x="440" y="217" width="10" height="28" fill="#6e4a1c" opacity=".85"/><rect x="456" y="217" width="10" height="28" fill="#8a5a22" opacity=".85"/><rect x="310" y="266" width="160" height="34" fill="#5c451e" opacity=".55"/><rect x="312" y="269" width="10" height="28" fill="#8a5a22" opacity=".85"/><rect x="328" y="269" width="10" height="28" fill="#a06a2a" opacity=".85"/><rect x="344" y="269" width="10" height="28" fill="#6e4a1c" opacity=".85"/><rect x="360" y="269" width="10" height="28" fill="#8a5a22" opacity=".85"/><rect x="376" y="269" width="10" height="28" fill="#a06a2a" opacity=".85"/><rect x="392" y="269" width="10" height="28" fill="#6e4a1c" opacity=".85"/><rect x="408" y="269" width="10" height="28" fill="#8a5a22" opacity=".85"/><rect x="424" y="269" width="10" height="28" fill="#a06a2a" opacity=".85"/><rect x="440" y="269" width="10" height="28" fill="#6e4a1c" opacity=".85"/><rect x="456" y="269" width="10" height="28" fill="#8a5a22" opacity=".85"/><rect x="310" y="318" width="160" height="34" fill="#5c451e" opacity=".55"/><rect x="312" y="321" width="10" height="28" fill="#8a5a22" opacity=".85"/><rect x="328" y="321" width="10" height="28" fill="#a06a2a" opacity=".85"/><rect x="344" y="321" width="10" height="28" fill="#6e4a1c" opacity=".85"/><rect x="360" y="321" width="10" height="28" fill="#8a5a22" opacity=".85"/><rect x="376" y="321" width="10" height="28" fill="#a06a2a" opacity=".85"/><rect x="392" y="321" width="10" height="28" fill="#6e4a1c" opacity=".85"/><rect x="408" y="321" width="10" height="28" fill="#8a5a22" opacity=".85"/><rect x="424" y="321" width="10" height="28" fill="#a06a2a" opacity=".85"/><rect x="440" y="321" width="10" height="28" fill="#6e4a1c" opacity=".85"/><rect x="456" y="321" width="10" height="28" fill="#8a5a22" opacity=".85"/><rect x="1130" y="110" width="160" height="34" fill="#5c451e" opacity=".55"/><rect x="1132" y="113" width="10" height="28" fill="#8a5a22" opacity=".85"/><rect x="1148" y="113" width="10" height="28" fill="#a06a2a" opacity=".85"/><rect x="1164" y="113" width="10" height="28" fill="#6e4a1c" opacity=".85"/><rect x="1180" y="113" width="10" height="28" fill="#8a5a22" opacity=".85"/><rect x="1196" y="113" width="10" height="28" fill="#a06a2a" opacity=".85"/><rect x="1212" y="113" width="10" height="28" fill="#6e4a1c" opacity=".85"/><rect x="1228" y="113" width="10" height="28" fill="#8a5a22" opacity=".85"/><rect x="1244" y="113" width="10" height="28" fill="#a06a2a" opacity=".85"/><rect x="1260" y="113" width="10" height="28" fill="#6e4a1c" opacity=".85"/><rect x="1276" y="113" width="10" height="28" fill="#8a5a22" opacity=".85"/><rect x="1130" y="162" width="160" height="34" fill="#5c451e" opacity=".55"/><rect x="1132" y="165" width="10" height="28" fill="#8a5a22" opacity=".85"/><rect x="1148" y="165" width="10" height="28" fill="#a06a2a" opacity=".85"/><rect x="1164" y="165" width="10" height="28" fill="#6e4a1c" opacity=".85"/><rect x="1180" y="165" width="10" height="28" fill="#8a5a22" opacity=".85"/><rect x="1196" y="165" width="10" height="28" fill="#a06a2a" opacity=".85"/><rect x="1212" y="165" width="10" height="28" fill="#6e4a1c" opacity=".85"/><rect x="1228" y="165" width="10" height="28" fill="#8a5a22" opacity=".85"/><rect x="1244" y="165" width="10" height="28" fill="#a06a2a" opacity=".85"/><rect x="1260" y="165" width="10" height="28" fill="#6e4a1c" opacity=".85"/><rect x="1276" y="165" width="10" height="28" fill="#8a5a22" opacity=".85"/><rect x="1130" y="214" width="160" height="34" fill="#5c451e" opacity=".55"/><rect x="1132" y="217" width="10" height="28" fill="#8a5a22" opacity=".85"/><rect x="1148" y="217" width="10" height="28" fill="#a06a2a" opacity=".85"/><rect x="1164" y="217" width="10" height="28" fill="#6e4a1c" opacity=".85"/><rect x="1180" y="217" width="10" height="28" fill="#8a5a22" opacity=".85"/><rect x="1196" y="217" width="10" height="28" fill="#a06a2a" opacity=".85"/><rect x="1212" y="217" width="10" height="28" fill="#6e4a1c" opacity=".85"/><rect x="1228" y="217" width="10" height="28" fill="#8a5a22" opacity=".85"/><rect x="1244" y="217" width="10" height="28" fill="#a06a2a" opacity=".85"/><rect x="1260" y="217" width="10" height="28" fill="#6e4a1c" opacity=".85"/><rect x="1276" y="217" width="10" height="28" fill="#8a5a22" opacity=".85"/><rect x="1130" y="266" width="160" height="34" fill="#5c451e" opacity=".55"/><rect x="1132" y="269" width="10" height="28" fill="#8a5a22" opacity=".85"/><rect x="1148" y="269" width="10" height="28" fill="#a06a2a" opacity=".85"/><rect x="1164" y="269" width="10" height="28" fill="#6e4a1c" opacity=".85"/><rect x="1180" y="269" width="10" height="28" fill="#8a5a22" opacity=".85"/><rect x="1196" y="269" width="10" height="28" fill="#a06a2a" opacity=".85"/><rect x="1212" y="269" width="10" height="28" fill="#6e4a1c" opacity=".85"/><rect x="1228" y="269" width="10" height="28" fill="#8a5a22" opacity=".85"/><rect x="1244" y="269" width="10" height="28" fill="#a06a2a" opacity=".85"/><rect x="1260" y="269" width="10" height="28" fill="#6e4a1c" opacity=".85"/><rect x="1276" y="269" width="10" height="28" fill="#8a5a22" opacity=".85"/><rect x="1130" y="318" width="160" height="34" fill="#5c451e" opacity=".55"/><rect x="1132" y="321" width="10" height="28" fill="#8a5a22" opacity=".85"/><rect x="1148" y="321" width="10" height="28" fill="#a06a2a" opacity=".85"/><rect x="1164" y="321" width="10" height="28" fill="#6e4a1c" opacity=".85"/><rect x="1180" y="321" width="10" height="28" fill="#8a5a22" opacity=".85"/><rect x="1196" y="321" width="10" height="28" fill="#a06a2a" opacity=".85"/><rect x="1212" y="321" width="10" height="28" fill="#6e4a1c" opacity=".85"/><rect x="1228" y="321" width="10" height="28" fill="#8a5a22" opacity=".85"/><rect x="1244" y="321" width="10" height="28" fill="#a06a2a" opacity=".85"/><rect x="1260" y="321" width="10" height="28" fill="#6e4a1c" opacity=".85"/><rect x="1276" y="321" width="10" height="28" fill="#8a5a22" opacity=".85"/><rect x="1390" y="110" width="200" height="34" fill="#5c451e" opacity=".55"/><rect x="1392" y="113" width="10" height="28" fill="#8a5a22" opacity=".85"/><rect x="1408" y="113" width="10" height="28" fill="#a06a2a" opacity=".85"/><rect x="1424" y="113" width="10" height="28" fill="#6e4a1c" opacity=".85"/><rect x="1440" y="113" width="10" height="28" fill="#8a5a22" opacity=".85"/><rect x="1456" y="113" width="10" height="28" fill="#a06a2a" opacity=".85"/><rect x="1472" y="113" width="10" height="28" fill="#6e4a1c" opacity=".85"/><rect x="1488" y="113" width="10" height="28" fill="#8a5a22" opacity=".85"/><rect x="1504" y="113" width="10" height="28" fill="#a06a2a" opacity=".85"/><rect x="1520" y="113" width="10" height="28" fill="#6e4a1c" opacity=".85"/><rect x="1536" y="113" width="10" height="28" fill="#8a5a22" opacity=".85"/><rect x="1552" y="113" width="10" height="28" fill="#a06a2a" opacity=".85"/><rect x="1568" y="113" width="10" height="28" fill="#6e4a1c" opacity=".85"/><rect x="1390" y="162" width="200" height="34" fill="#5c451e" opacity=".55"/><rect x="1392" y="165" width="10" height="28" fill="#8a5a22" opacity=".85"/><rect x="1408" y="165" width="10" height="28" fill="#a06a2a" opacity=".85"/><rect x="1424" y="165" width="10" height="28" fill="#6e4a1c" opacity=".85"/><rect x="1440" y="165" width="10" height="28" fill="#8a5a22" opacity=".85"/><rect x="1456" y="165" width="10" height="28" fill="#a06a2a" opacity=".85"/><rect x="1472" y="165" width="10" height="28" fill="#6e4a1c" opacity=".85"/><rect x="1488" y="165" width="10" height="28" fill="#8a5a22" opacity=".85"/><rect x="1504" y="165" width="10" height="28" fill="#a06a2a" opacity=".85"/><rect x="1520" y="165" width="10" height="28" fill="#6e4a1c" opacity=".85"/><rect x="1536" y="165" width="10" height="28" fill="#8a5a22" opacity=".85"/><rect x="1552" y="165" width="10" height="28" fill="#a06a2a" opacity=".85"/><rect x="1568" y="165" width="10" height="28" fill="#6e4a1c" opacity=".85"/><rect x="1390" y="214" width="200" height="34" fill="#5c451e" opacity=".55"/><rect x="1392" y="217" width="10" height="28" fill="#8a5a22" opacity=".85"/><rect x="1408" y="217" width="10" height="28" fill="#a06a2a" opacity=".85"/><rect x="1424" y="217" width="10" height="28" fill="#6e4a1c" opacity=".85"/><rect x="1440" y="217" width="10" height="28" fill="#8a5a22" opacity=".85"/><rect x="1456" y="217" width="10" height="28" fill="#a06a2a" opacity=".85"/><rect x="1472" y="217" width="10" height="28" fill="#6e4a1c" opacity=".85"/><rect x="1488" y="217" width="10" height="28" fill="#8a5a22" opacity=".85"/><rect x="1504" y="217" width="10" height="28" fill="#a06a2a" opacity=".85"/><rect x="1520" y="217" width="10" height="28" fill="#6e4a1c" opacity=".85"/><rect x="1536" y="217" width="10" height="28" fill="#8a5a22" opacity=".85"/><rect x="1552" y="217" width="10" height="28" fill="#a06a2a" opacity=".85"/><rect x="1568" y="217" width="10" height="28" fill="#6e4a1c" opacity=".85"/><rect x="1390" y="266" width="200" height="34" fill="#5c451e" opacity=".55"/><rect x="1392" y="269" width="10" height="28" fill="#8a5a22" opacity=".85"/><rect x="1408" y="269" width="10" height="28" fill="#a06a2a" opacity=".85"/><rect x="1424" y="269" width="10" height="28" fill="#6e4a1c" opacity=".85"/><rect x="1440" y="269" width="10" height="28" fill="#8a5a22" opacity=".85"/><rect x="1456" y="269" width="10" height="28" fill="#a06a2a" opacity=".85"/><rect x="1472" y="269" width="10" height="28" fill="#6e4a1c" opacity=".85"/><rect x="1488" y="269" width="10" height="28" fill="#8a5a22" opacity=".85"/><rect x="1504" y="269" width="10" height="28" fill="#a06a2a" opacity=".85"/><rect x="1520" y="269" width="10" height="28" fill="#6e4a1c" opacity=".85"/><rect x="1536" y="269" width="10" height="28" fill="#8a5a22" opacity=".85"/><rect x="1552" y="269" width="10" height="28" fill="#a06a2a" opacity=".85"/><rect x="1568" y="269" width="10" height="28" fill="#6e4a1c" opacity=".85"/><rect x="1390" y="318" width="200" height="34" fill="#5c451e" opacity=".55"/><rect x="1392" y="321" width="10" height="28" fill="#8a5a22" opacity=".85"/><rect x="1408" y="321" width="10" height="28" fill="#a06a2a" opacity=".85"/><rect x="1424" y="321" width="10" height="28" fill="#6e4a1c" opacity=".85"/><rect x="1440" y="321" width="10" height="28" fill="#8a5a22" opacity=".85"/><rect x="1456" y="321" width="10" height="28" fill="#a06a2a" opacity=".85"/><rect x="1472" y="321" width="10" height="28" fill="#6e4a1c" opacity=".85"/><rect x="1488" y="321" width="10" height="28" fill="#8a5a22" opacity=".85"/><rect x="1504" y="321" width="10" height="28" fill="#a06a2a" opacity=".85"/><rect x="1520" y="321" width="10" height="28" fill="#6e4a1c" opacity=".85"/><rect x="1536" y="321" width="10" height="28" fill="#8a5a22" opacity=".85"/><rect x="1552" y="321" width="10" height="28" fill="#a06a2a" opacity=".85"/><rect x="1568" y="321" width="10" height="28" fill="#6e4a1c" opacity=".85"/>
<rect x="0" y="418" width="1600" height="482" fill="url(#floor)"/>
<ellipse cx="800" cy="730" rx="520" ry="150" fill="url(#pool)"/>
<circle cx="330" cy="150" r="5" fill="#ffedb8" opacity=".9"/><rect x="327" y="156" width="6" height="12" fill="#e8c56a" opacity=".6"/><circle cx="465" cy="210" r="5" fill="#ffedb8" opacity=".9"/><rect x="462" y="216" width="6" height="12" fill="#e8c56a" opacity=".6"/><circle cx="600" cy="270" r="5" fill="#ffedb8" opacity=".9"/><rect x="597" y="276" width="6" height="12" fill="#e8c56a" opacity=".6"/><circle cx="735" cy="330" r="5" fill="#ffedb8" opacity=".9"/><rect x="732" y="336" width="6" height="12" fill="#e8c56a" opacity=".6"/><circle cx="870" cy="150" r="5" fill="#ffedb8" opacity=".9"/><rect x="867" y="156" width="6" height="12" fill="#e8c56a" opacity=".6"/><circle cx="1005" cy="210" r="5" fill="#ffedb8" opacity=".9"/><rect x="1002" y="216" width="6" height="12" fill="#e8c56a" opacity=".6"/><circle cx="1140" cy="270" r="5" fill="#ffedb8" opacity=".9"/><rect x="1137" y="276" width="6" height="12" fill="#e8c56a" opacity=".6"/><circle cx="1275" cy="330" r="5" fill="#ffedb8" opacity=".9"/><rect x="1272" y="336" width="6" height="12" fill="#e8c56a" opacity=".6"/>
<path d="M0 900 L0 518 L120 468 L190 900 Z" fill="#0e0a04" opacity=".85"/>
<path d="M1600 900 L1600 518 L1480 468 L1410 900 Z" fill="#0e0a04" opacity=".85"/>
<rect width="1600" height="900" fill="url(#vig)"/>
</svg>