<svg xmlns="http://www.w3.org/2000/svg" width="1600" height="900" viewBox="0 0 1600 900">
<defs>
  <linearGradient id="sky" x1="0" y1="0" x2="0" y2="1">
    <stop offset="0" stop-color="#2b1930"/><stop offset=".62" stop-color="#7a3c58"/><stop offset="1" stop-color="#c98a86"/>
  </linearGradient>
  <linearGradient id="floor" x1="0" y1="0" x2="0" y2="1">
    <stop offset="0" stop-color="#4a2c40"/><stop offset="1" stop-color="#1a0e1c"/>
  </linearGradient>
  <radialGradient id="glow" cx="50%" cy="50%" r="50%">
    <stop offset="0" stop-color="#ffcfd6" stop-opacity=".85"/><stop offset="1" stop-color="#ffcfd6" stop-opacity="0"/>
  </radialGradient>
  <radialGradient id="pool" cx="50%" cy="50%" r="50%">
    <stop offset="0" stop-color="#ffb8c8" stop-opacity=".28"/><stop offset="1" stop-color="#ffb8c8" stop-opacity="0"/>
  </radialGradient>
  <radialGradient id="vig" cx="50%" cy="46%" r="72%">
    <stop offset=".55" stop-color="#000" stop-opacity="0"/><stop offset="1" stop-color="#03020a" stop-opacity=".55"/>
  </radialGradient>
</defs>
<rect width="1600" height="900" fill="url(#sky)"/>
<ellipse cx="700" cy="318" rx="560" ry="300" fill="url(#glow)"/>
<circle cx="700" cy="200" r="98" fill="#ffe9ec" opacity=".85"/>
<path d="M0 384 L80 384 L80 234 L96.5 210 L135 174 L173.5 210 L190 234 L190 384 L330 384 L330 264 L343.5 244 L375 214 L406.5 244 L420 264 L420 384 L1160 384 L1160 249 L1175 227 L1210 194 L1245 227 L1260 249 L1260 384 L1420 384 L1420 214 L1438 188.4 L1480 150 L1522 188.4 L1540 214 L1540 384 L1600 384 L1600 900 L0 900 Z" fill="#3a2340" opacity=".55"/>
<path d="M0 404 L0 404 L0 314 L22.5 296.4 L75 270 L127.5 296.4 L150 314 L150 404 L1300 404 L1300 294 L1325.5 273.2 L1385 242 L1444.5 273.2 L1470 294 L1470 404 L1600 404 L1600 900 L0 900 Z" fill="#241326" opacity=".8"/>

<rect x="0" y="418" width="1600" height="482" fill="url(#floor)"/>
<ellipse cx="800" cy="730" rx="520" ry="150" fill="url(#pool)"/>
<circle cx="0" cy="0" r="3" fill="#ffb3c6" opacity="0.35"/><circle cx="379" cy="173" r="4" fill="#ffb3c6" opacity="0.44999999999999996"/><circle cx="758" cy="346" r="5" fill="#ffb3c6" opacity="0.55"/><circle cx="1137" cy="519" r="6" fill="#ffb3c6" opacity="0.65"/><circle cx="1516" cy="134" r="3" fill="#ffb3c6" opacity="0.75"/><circle cx="295" cy="307" r="4" fill="#ffb3c6" opacity="0.35"/><circle cx="674" cy="480" r="5" fill="#ffb3c6" opacity="0.44999999999999996"/><circle cx="1053" cy="95" r="6" fill="#ffb3c6" opacity="0.55"/><circle cx="1432" cy="268" r="3" fill="#ffb3c6" opacity="0.65"/><circle cx="211" cy="441" r="4" fill="#ffb3c6" opacity="0.75"/><circle cx="590" cy="56" r="5" fill="#ffb3c6" opacity="0.35"/><circle cx="969" cy="229" r="6" fill="#ffb3c6" opacity="0.44999999999999996"/><circle cx="1348" cy="402" r="3" fill="#ffb3c6" opacity="0.55"/><circle cx="127" cy="17" r="4" fill="#ffb3c6" opacity="0.65"/><circle cx="506" cy="190" r="5" fill="#ffb3c6" opacity="0.75"/><circle cx="885" cy="363" r="6" fill="#ffb3c6" opacity="0.35"/><circle cx="1264" cy="536" r="3" fill="#ffb3c6" opacity="0.44999999999999996"/><circle cx="43" cy="151" r="4" fill="#ffb3c6" opacity="0.55"/><circle cx="422" cy="324" r="5" fill="#ffb3c6" opacity="0.65"/><circle cx="801" cy="497" r="6" fill="#ffb3c6" opacity="0.75"/><circle cx="1180" cy="112" r="3" fill="#ffb3c6" opacity="0.35"/><circle cx="1559" cy="285" r="4" fill="#ffb3c6" opacity="0.44999999999999996"/><circle cx="338" cy="458" r="5" fill="#ffb3c6" opacity="0.55"/><circle cx="717" cy="73" r="6" fill="#ffb3c6" opacity="0.65"/><circle cx="1096" cy="246" r="3" fill="#ffb3c6" opacity="0.75"/><circle cx="1475" cy="419" r="4" fill="#ffb3c6" opacity="0.35"/><circle cx="254" cy="34" r="5" fill="#ffb3c6" opacity="0.44999999999999996"/><circle cx="633" cy="207" r="6" fill="#ffb3c6" opacity="0.55"/><circle cx="1012" cy="380" r="3" fill="#ffb3c6" opacity="0.65"/><circle cx="1391" cy="553" r="4" fill="#ffb3c6" opacity="0.75"/><circle cx="170" cy="168" r="5" fill="#ffb3c6" opacity="0.35"/><circle cx="549" cy="341" r="6" fill="#ffb3c6" opacity="0.44999999999999996"/><circle cx="928" cy="514" r="3" fill="#ffb3c6" opacity="0.55"/><circle cx="1307" cy="129" r="4" fill="#ffb3c6" opacity="0.65"/><circle cx="86" cy="302" r="5" fill="#ffb3c6" opacity="0.75"/><circle cx="465" cy="475" r="6" fill="#ffb3c6" opacity="0.35"/><circle cx="844" cy="90" r="3" fill="#ffb3c6" opacity="0.44999999999999996"/><circle cx="1223" cy="263" r="4" fill="#ffb3c6" opacity="0.55"/><circle cx="2" cy="436" r="5" fill="#ffb3c6" opacity="0.65"/><circle cx="381" cy="51" r="6" fill="#ffb3c6" opacity="0.75"/><circle cx="760" cy="224" r="3" fill="#ffb3c6" opacity="0.35"/><circle cx="1139" cy="397" r="4" fill="#ffb3c6" opacity="0.44999999999999996"/><circle cx="1518" cy="12" r="5" fill="#ffb3c6" opacity="0.55"/><circle cx="297" cy="185" r="6" fill="#ffb3c6" opacity="0.65"/><circle cx="676" cy="358" r="3" fill="#ffb3c6" opacity="0.75"/><circle cx="1055" cy="531" r="4" fill="#ffb3c6" opacity="0.35"/>
<path d="M0 900 L0 518 L120 468 L190 900 Z" fill="#160a18" opacity=".85"/>
<path d="M1600 900 L1600 518 L1480 468 L1410 900 Z" fill="#160a18" opacity=".85"/>
<rect width="1600" height="900" fill="url(#vig)"/>
</svg>